# MagicaVoxel @ Ephtracy

# group
o 

# material
mtllib boxy.mtl
usemtl palette

# normals
vn -1 0 0
vn 1 0 0
vn 0 0 1
vn 0 0 -1
vn 0 -1 0
vn 0 1 0

# texcoords
vt 0.412109 0.5
vt 0.560547 0.5
vt 0.732422 0.5

# verts
v -0.2 0 -7.45058e-009
v -0.2 0 -0.5
v -0.2 0.3 -7.45058e-009
v -0.2 0.3 -0.5
v -0.2 0.4 -7.45058e-009
v -0.2 0.4 -0.5
v 0.2 0 -7.45058e-009
v 0.2 0 -0.5
v 0.2 0.3 -7.45058e-009
v 0.2 0.3 -0.5
v 0.2 0.4 -7.45058e-009
v 0.2 0.4 -0.5
v -0.2 0 -7.45058e-009
v -0.2 0.3 -7.45058e-009
v -0.2 0.4 -7.45058e-009
v -0.1 0.1 -7.45058e-009
v -0.1 0.2 -7.45058e-009
v 0.1 0.1 -7.45058e-009
v 0.1 0.2 -7.45058e-009
v 0.2 0 -7.45058e-009
v 0.2 0.3 -7.45058e-009
v 0.2 0.4 -7.45058e-009
v -0.2 0 -0.5
v -0.2 0.3 -0.5
v -0.2 0.4 -0.5
v 0.2 0 -0.5
v 0.2 0.3 -0.5
v 0.2 0.4 -0.5
v -0.2 0 -7.45058e-009
v 0.2 0 -7.45058e-009
v -0.2 0 -0.5
v 0.2 0 -0.5
v -0.2 0.4 -7.45058e-009
v 0.2 0.4 -7.45058e-009
v -0.2 0.4 -0.5
v 0.2 0.4 -0.5

# faces
f 3/3/1 2/3/1 1/3/1
f 4/3/1 2/3/1 3/3/1
f 5/2/1 4/2/1 3/2/1
f 6/2/1 4/2/1 5/2/1
f 7/3/2 8/3/2 9/3/2
f 9/3/2 8/3/2 10/3/2
f 9/2/2 10/2/2 11/2/2
f 11/2/2 10/2/2 12/2/2
f 16/3/3 14/3/3 13/3/3
f 17/3/3 14/3/3 16/3/3
f 18/3/3 16/3/3 13/3/3
f 18/1/3 17/1/3 16/1/3
f 19/3/3 14/3/3 17/3/3
f 19/1/3 17/1/3 18/1/3
f 20/3/3 18/3/3 13/3/3
f 20/3/3 19/3/3 18/3/3
f 21/2/3 15/2/3 14/2/3
f 21/3/3 19/3/3 20/3/3
f 21/3/3 14/3/3 19/3/3
f 22/2/3 15/2/3 21/2/3
f 23/3/4 24/3/4 26/3/4
f 24/2/4 25/2/4 27/2/4
f 26/3/4 24/3/4 27/3/4
f 27/2/4 25/2/4 28/2/4
f 31/3/5 30/3/5 29/3/5
f 32/3/5 30/3/5 31/3/5
f 33/2/6 34/2/6 35/2/6
f 35/2/6 34/2/6 36/2/6
