# MagicaVoxel @ Ephtracy

# group
o 

# material
mtllib rollo.mtl
usemtl palette

# normals
vn -1 0 0
vn 1 0 0
vn 0 0 1
vn 0 0 -1
vn 0 -1 0
vn 0 1 0

# texcoords
vt 0.958984 0.5
vt 0.978516 0.5
vt 0.982422 0.5

# verts
v -0.4 0 0.2
v -0.4 0 -0.3
v -0.4 0.1 0.2
v -0.4 0.1 -0.3
v -0.3 0 0.3
v -0.3 0 0.2
v -0.3 0 -0.3
v -0.3 0 -0.4
v -0.3 0.1 0.3
v -0.3 0.1 0.2
v -0.3 0.1 0.1
v -0.3 0.1 -0.2
v -0.3 0.1 -0.3
v -0.3 0.1 -0.4
v -0.3 1.3 0.1
v -0.3 1.3 -0.2
v -0.2 0.1 0.2
v -0.2 0.1 0.1
v -0.2 0.1 -0.2
v -0.2 0.1 -0.3
v -0.2 1.3 0.2
v -0.2 1.3 0.1
v -0.2 1.3 -0.2
v -0.2 1.3 -0.3
v -0.1 1.3 0
v -0.1 1.3 -0.1
v -0.1 1.5 0
v -0.1 1.5 -0.1
v 0 1.3 0
v 0 1.3 -0.1
v 0 1.5 0
v 0 1.5 -0.1
v 0.1 0.1 0.2
v 0.1 0.1 0.1
v 0.1 0.1 -0.2
v 0.1 0.1 -0.3
v 0.1 1.3 0.2
v 0.1 1.3 0.1
v 0.1 1.3 -0.2
v 0.1 1.3 -0.3
v 0.2 0 0.3
v 0.2 0 0.2
v 0.2 0 -0.3
v 0.2 0 -0.4
v 0.2 0.1 0.3
v 0.2 0.1 0.2
v 0.2 0.1 0.1
v 0.2 0.1 -0.2
v 0.2 0.1 -0.3
v 0.2 0.1 -0.4
v 0.2 1.3 0.1
v 0.2 1.3 -0.2
v 0.3 0 0.2
v 0.3 0 -0.3
v 0.3 0.1 0.2
v 0.3 0.1 -0.3
v -0.3 0 0.3
v -0.3 0.1 0.3
v 0.2 0 0.3
v 0.2 0.1 0.3
v -0.4 0 0.2
v -0.4 0.1 0.2
v -0.3 0 0.2
v -0.3 0.1 0.2
v -0.2 0.1 0.2
v -0.2 1.3 0.2
v 0.1 0.1 0.2
v 0.1 1.3 0.2
v 0.2 0 0.2
v 0.2 0.1 0.2
v 0.3 0 0.2
v 0.3 0.1 0.2
v -0.3 0.1 0.1
v -0.3 1.3 0.1
v -0.2 0.1 0.1
v -0.2 1.3 0.1
v 0.1 0.1 0.1
v 0.1 1.3 0.1
v 0.2 0.1 0.1
v 0.2 1.3 0.1
v -0.1 1.3 0
v -0.1 1.5 0
v 0 1.3 0
v 0 1.5 0
v -0.1 1.3 -0.1
v -0.1 1.5 -0.1
v 0 1.3 -0.1
v 0 1.5 -0.1
v -0.3 0.1 -0.2
v -0.3 1.3 -0.2
v -0.2 0.1 -0.2
v -0.2 1.3 -0.2
v 0.1 0.1 -0.2
v 0.1 1.3 -0.2
v 0.2 0.1 -0.2
v 0.2 1.3 -0.2
v -0.4 0 -0.3
v -0.4 0.1 -0.3
v -0.3 0 -0.3
v -0.3 0.1 -0.3
v -0.2 0.1 -0.3
v -0.2 1.3 -0.3
v 0.1 0.1 -0.3
v 0.1 1.3 -0.3
v 0.2 0 -0.3
v 0.2 0.1 -0.3
v 0.3 0 -0.3
v 0.3 0.1 -0.3
v -0.3 0 -0.4
v -0.3 0.1 -0.4
v 0.2 0 -0.4
v 0.2 0.1 -0.4
v -0.3 0 0.3
v 0.2 0 0.3
v -0.4 0 0.2
v -0.3 0 0.2
v 0.2 0 0.2
v 0.3 0 0.2
v -0.3 0 0.1
v 0.2 0 0.1
v -0.3 0 -0.2
v 0.2 0 -0.2
v -0.4 0 -0.3
v -0.3 0 -0.3
v 0.2 0 -0.3
v 0.3 0 -0.3
v -0.3 0 -0.4
v 0.2 0 -0.4
v -0.3 0.1 0.3
v 0.2 0.1 0.3
v -0.4 0.1 0.2
v -0.3 0.1 0.2
v -0.2 0.1 0.2
v 0.1 0.1 0.2
v 0.2 0.1 0.2
v 0.3 0.1 0.2
v -0.3 0.1 0.1
v -0.2 0.1 0.1
v 0.1 0.1 0.1
v 0.2 0.1 0.1
v -0.3 0.1 -0.2
v -0.2 0.1 -0.2
v 0.1 0.1 -0.2
v 0.2 0.1 -0.2
v -0.4 0.1 -0.3
v -0.3 0.1 -0.3
v -0.2 0.1 -0.3
v 0.1 0.1 -0.3
v 0.2 0.1 -0.3
v 0.3 0.1 -0.3
v -0.3 0.1 -0.4
v 0.2 0.1 -0.4
v -0.2 1.3 0.2
v 0.1 1.3 0.2
v -0.3 1.3 0.1
v -0.2 1.3 0.1
v 0.1 1.3 0.1
v 0.2 1.3 0.1
v -0.1 1.3 0
v 0 1.3 0
v -0.1 1.3 -0.1
v 0 1.3 -0.1
v -0.3 1.3 -0.2
v -0.2 1.3 -0.2
v 0.1 1.3 -0.2
v 0.2 1.3 -0.2
v -0.2 1.3 -0.3
v 0.1 1.3 -0.3
v -0.1 1.5 0
v 0 1.5 0
v -0.1 1.5 -0.1
v 0 1.5 -0.1

# faces
f 3/2/1 2/2/1 1/2/1
f 4/2/1 2/2/1 3/2/1
f 9/2/1 6/2/1 5/2/1
f 10/2/1 6/2/1 9/2/1
f 13/2/1 8/2/1 7/2/1
f 14/2/1 8/2/1 13/2/1
f 15/1/1 12/1/1 11/1/1
f 16/1/1 12/1/1 15/1/1
f 21/1/1 18/1/1 17/1/1
f 22/1/1 18/1/1 21/1/1
f 23/1/1 20/1/1 19/1/1
f 24/1/1 20/1/1 23/1/1
f 27/2/1 26/2/1 25/2/1
f 28/2/1 26/2/1 27/2/1
f 29/2/2 30/2/2 31/2/2
f 31/2/2 30/2/2 32/2/2
f 33/1/2 34/1/2 37/1/2
f 37/1/2 34/1/2 38/1/2
f 35/1/2 36/1/2 39/1/2
f 39/1/2 36/1/2 40/1/2
f 41/2/2 42/2/2 45/2/2
f 45/2/2 42/2/2 46/2/2
f 43/2/2 44/2/2 49/2/2
f 49/2/2 44/2/2 50/2/2
f 47/1/2 48/1/2 51/1/2
f 51/1/2 48/1/2 52/1/2
f 53/2/2 54/2/2 55/2/2
f 55/2/2 54/2/2 56/2/2
f 59/2/3 58/2/3 57/2/3
f 60/2/3 58/2/3 59/2/3
f 63/2/3 62/2/3 61/2/3
f 64/2/3 62/2/3 63/2/3
f 67/1/3 66/1/3 65/1/3
f 68/1/3 66/1/3 67/1/3
f 71/2/3 70/2/3 69/2/3
f 72/2/3 70/2/3 71/2/3
f 75/1/3 74/1/3 73/1/3
f 76/1/3 74/1/3 75/1/3
f 79/1/3 78/1/3 77/1/3
f 80/1/3 78/1/3 79/1/3
f 83/2/3 82/2/3 81/2/3
f 84/2/3 82/2/3 83/2/3
f 85/2/4 86/2/4 87/2/4
f 87/2/4 86/2/4 88/2/4
f 89/1/4 90/1/4 91/1/4
f 91/1/4 90/1/4 92/1/4
f 93/1/4 94/1/4 95/1/4
f 95/1/4 94/1/4 96/1/4
f 97/2/4 98/2/4 99/2/4
f 99/2/4 98/2/4 100/2/4
f 101/1/4 102/1/4 103/1/4
f 103/1/4 102/1/4 104/1/4
f 105/2/4 106/2/4 107/2/4
f 107/2/4 106/2/4 108/2/4
f 109/2/4 110/2/4 111/2/4
f 111/2/4 110/2/4 112/2/4
f 116/2/5 114/2/5 113/2/5
f 117/2/5 114/2/5 116/2/5
f 119/2/5 116/2/5 115/2/5
f 119/2/5 118/2/5 117/2/5
f 119/2/5 117/2/5 116/2/5
f 120/2/5 118/2/5 119/2/5
f 121/2/5 119/2/5 115/2/5
f 121/3/5 120/3/5 119/3/5
f 122/2/5 118/2/5 120/2/5
f 122/3/5 120/3/5 121/3/5
f 123/2/5 121/2/5 115/2/5
f 123/2/5 122/2/5 121/2/5
f 124/2/5 122/2/5 123/2/5
f 125/2/5 118/2/5 122/2/5
f 125/2/5 122/2/5 124/2/5
f 126/2/5 118/2/5 125/2/5
f 127/2/5 125/2/5 124/2/5
f 128/2/5 125/2/5 127/2/5
f 129/2/6 130/2/6 132/2/6
f 132/2/6 130/2/6 133/2/6
f 133/2/6 130/2/6 134/2/6
f 134/2/6 130/2/6 135/2/6
f 131/2/6 132/2/6 137/2/6
f 132/2/6 133/2/6 137/2/6
f 137/2/6 133/2/6 138/2/6
f 135/2/6 136/2/6 139/2/6
f 134/2/6 135/2/6 139/2/6
f 139/2/6 136/2/6 140/2/6
f 131/2/6 137/2/6 141/2/6
f 140/2/6 136/2/6 144/2/6
f 141/2/6 142/2/6 145/2/6
f 131/2/6 141/2/6 145/2/6
f 145/2/6 142/2/6 146/2/6
f 146/2/6 142/2/6 147/2/6
f 143/2/6 144/2/6 148/2/6
f 144/2/6 136/2/6 149/2/6
f 148/2/6 144/2/6 149/2/6
f 149/2/6 136/2/6 150/2/6
f 146/2/6 147/2/6 151/2/6
f 147/2/6 148/2/6 151/2/6
f 148/2/6 149/2/6 151/2/6
f 151/2/6 149/2/6 152/2/6
f 153/1/6 154/1/6 156/1/6
f 156/1/6 154/1/6 157/1/6
f 155/1/6 156/1/6 159/1/6
f 157/1/6 158/1/6 159/1/6
f 156/1/6 157/1/6 159/1/6
f 159/1/6 158/1/6 160/1/6
f 155/1/6 159/1/6 161/1/6
f 160/1/6 158/1/6 162/1/6
f 155/1/6 161/1/6 163/1/6
f 161/1/6 162/1/6 163/1/6
f 163/1/6 162/1/6 164/1/6
f 162/1/6 158/1/6 165/1/6
f 164/1/6 162/1/6 165/1/6
f 165/1/6 158/1/6 166/1/6
f 164/1/6 165/1/6 167/1/6
f 167/1/6 165/1/6 168/1/6
f 169/2/6 170/2/6 171/2/6
f 171/2/6 170/2/6 172/2/6
